<svg xmlns="http://www.w3.org/2000/svg" width="488.705" height="359.972" viewBox="0 0 488.705 359.972">
  <g id="Group_77" data-name="Group 77" transform="translate(-216 -127.401)">
    <path id="Path_73" data-name="Path 73" d="M0,0,.145,137.9,119.713,70.739Z" transform="translate(458.718 278.112) rotate(60)" fill="#0e0e0e"/>
    <g id="Group_73" data-name="Group 73" transform="translate(216 127.401)">
      <path id="Path_63" data-name="Path 63" d="M13420.08-1396.242v137.193l115.953-68.6Z" transform="translate(-13419.419 1545.44)" fill="#0e0e0e"/>
      <path id="Path_71" data-name="Path 71" d="M13536.033-1396.242v137.193l-115.953-68.6Z" transform="translate(-13047.544 1545.44)" fill="#484848"/>
      <path id="Path_66" data-name="Path 66" d="M0,0V137.193L117.992,66.631Z" transform="translate(2.06 291.376) rotate(-60)" fill="#0e0e0e"/>
      <path id="Path_72" data-name="Path 72" d="M0,137.194,0,0,117.994,70.562Z" transform="translate(369.295 359.972) rotate(-120)" fill="#484848"/>
      <path id="Path_64" data-name="Path 64" d="M0,0,.145,139.267,119.713,71.442Z" transform="translate(120.609 74.457) rotate(60)" fill="#0e0e0e"/>
      <path id="Path_74" data-name="Path 74" d="M.229,137.57,0,0,121.637,68.958Z" transform="translate(366.042 218.612) rotate(120)" fill="#484848"/>
      <path id="Path_70" data-name="Path 70" d="M0,139.267.144,0,119.711,67.825Z" transform="translate(488.705 144.09) rotate(120)" fill="#484848"/>
      <path id="Path_65" data-name="Path 65" d="M0,0,.145,139.267,119.713,71.442Z" transform="translate(0.549 0)" fill="#0e0e0e"/>
      <path id="Path_69" data-name="Path 69" d="M0,139.267.144,0,119.712,67.825Z" transform="translate(488.159 139.267) rotate(180)" fill="#484848"/>
      <path id="Path_67" data-name="Path 67" d="M1.344,0,0,139.783,121.058,71.442Z" transform="translate(122.498 73.58)" fill="#0e0e0e"/>
      <path id="Path_68" data-name="Path 68" d="M1.346,139.783,0,0,121.058,68.341Z" transform="translate(366.852 213.363) rotate(180)" fill="#484848"/>
    </g>
  </g>
</svg>
