<svg xmlns="http://www.w3.org/2000/svg" width="866.633" height="110.514" viewBox="0 0 866.633 110.514">
  <g id="Group_84" data-name="Group 84" transform="translate(-243 -122.401)">
    <g id="Group_74" data-name="Group 74" transform="translate(243 122.401)">
      <path id="Path_73" data-name="Path 73" d="M0,0,.044,42.335,36.753,21.717Z" transform="translate(74.516 46.269) rotate(60)" fill="#fff"/>
      <g id="Group_73" data-name="Group 73" transform="translate(0 0)">
        <path id="Path_63" data-name="Path 63" d="M13420.082-1396.242v42.119l35.6-21.06Z" transform="translate(-13419.88 1442.047)" fill="#fff"/>
        <path id="Path_71" data-name="Path 71" d="M13455.682-1396.242v42.119l-35.6-21.06Z" transform="translate(-13305.711 1442.047)" fill="#d3d3d3"/>
        <path id="Path_66" data-name="Path 66" d="M0,0V42.119L36.224,20.456Z" transform="translate(0.632 89.454) rotate(-60)" fill="#fff"/>
        <path id="Path_72" data-name="Path 72" d="M0,42.119V0L36.225,21.663Z" transform="translate(113.376 110.514) rotate(-120)" fill="#d3d3d3"/>
        <path id="Path_64" data-name="Path 64" d="M0,0,.044,42.756,36.753,21.933Z" transform="translate(37.028 22.859) rotate(60)" fill="#fff"/>
        <path id="Path_74" data-name="Path 74" d="M.07,42.235,0,0,37.343,21.17Z" transform="translate(112.377 67.115) rotate(120)" fill="#d3d3d3"/>
        <path id="Path_70" data-name="Path 70" d="M0,42.756.044,0,36.752,20.823Z" transform="translate(150.036 44.237) rotate(120)" fill="#d3d3d3"/>
        <path id="Path_65" data-name="Path 65" d="M0,0,.044,42.756,36.753,21.933Z" transform="translate(0.169 0)" fill="#fff"/>
        <path id="Path_69" data-name="Path 69" d="M0,42.756.044,0,36.753,20.823Z" transform="translate(149.868 42.756) rotate(180)" fill="#d3d3d3"/>
        <path id="Path_67" data-name="Path 67" d="M.413,0,0,42.914,37.165,21.933Z" transform="translate(37.608 22.589)" fill="#fff"/>
        <path id="Path_68" data-name="Path 68" d="M.413,42.914,0,0,37.166,20.981Z" transform="translate(112.626 65.504) rotate(180)" fill="#d3d3d3"/>
      </g>
    </g>
    <path id="Path_56" data-name="Path 56" d="M6.952-5.2l7.459-67.619H25.8l17.5,46.1,17.5-46.1H72.194L79.653-5.2h-10.7l-5.41-48.194L46.745-7.736H39.9L23.058-53.389,17.689-5.2ZM115.8-3.884a19.855,19.855,0,0,1-10.553-2.889,20.847,20.847,0,0,1-7.5-7.93A23.542,23.542,0,0,1,94.98-26.219a23.825,23.825,0,0,1,2.684-11.413,20.481,20.481,0,0,1,7.4-7.93,20.019,20.019,0,0,1,10.737-2.91,20.13,20.13,0,0,1,9.057,2.049,16.441,16.441,0,0,1,6.557,5.7V-47.16h10.2V-5.2h-10.2v-6.721a19.662,19.662,0,0,1-6.823,5.922A18.685,18.685,0,0,1,115.8-3.884Zm2.91-8.729a12.832,12.832,0,0,0,6.721-1.742,12.458,12.458,0,0,0,4.59-4.815,14.37,14.37,0,0,0,1.68-7.008,14.339,14.339,0,0,0-1.68-7.028A12.5,12.5,0,0,0,125.429-38a12.832,12.832,0,0,0-6.721-1.742A12.97,12.97,0,0,0,111.987-38a12.365,12.365,0,0,0-4.631,4.815,14.37,14.37,0,0,0-1.68,7.008,14.37,14.37,0,0,0,1.68,7.008,12.365,12.365,0,0,0,4.631,4.815A12.97,12.97,0,0,0,118.708-12.613ZM161.533-5.2V-47.16h10.2v6.106a15.6,15.6,0,0,1,5.532-5.512,14.394,14.394,0,0,1,7.295-1.906,17.469,17.469,0,0,1,4.283.553,14.608,14.608,0,0,1,3.75,1.455l-4.221,8.647a12.365,12.365,0,0,0-3.135-1.311,12.465,12.465,0,0,0-3.3-.492,9.742,9.742,0,0,0-4.959,1.352,11.476,11.476,0,0,0-3.791,3.483,7.986,7.986,0,0,0-1.455,4.59v25Zm69.5,1.311a18.866,18.866,0,0,1-8.872-2.131,19.538,19.538,0,0,1-6.823-5.9V-5.2h-10.2V-75.683h10.2v34.957a17.579,17.579,0,0,1,6.577-5.7,19.406,19.406,0,0,1,8.913-2.049,20.229,20.229,0,0,1,10.778,2.91,20.684,20.684,0,0,1,7.479,7.93,23.621,23.621,0,0,1,2.725,11.454,23.4,23.4,0,0,1-2.787,11.516,20.95,20.95,0,0,1-7.479,7.909A19.752,19.752,0,0,1,231.037-3.884Zm-2.91-8.729a12.94,12.94,0,0,0,6.741-1.742,12.3,12.3,0,0,0,4.59-4.795,14.394,14.394,0,0,0,1.66-6.987,14.347,14.347,0,0,0-1.7-7.028A12.568,12.568,0,0,0,234.807-38a12.752,12.752,0,0,0-6.68-1.742A13.08,13.08,0,0,0,221.386-38a12.284,12.284,0,0,0-4.651,4.836,14.488,14.488,0,0,0-1.68,7.028,14.394,14.394,0,0,0,1.66,6.987,12.213,12.213,0,0,0,4.631,4.795A13.159,13.159,0,0,0,228.127-12.613ZM268.576-5.2V-75.683h10.2V-5.2ZM318.7-3.884a24.6,24.6,0,0,1-12.028-2.91,22.18,22.18,0,0,1-8.4-7.95A21.262,21.262,0,0,1,295.173-26.1a21.672,21.672,0,0,1,1.762-8.729,22.533,22.533,0,0,1,4.877-7.131,22.538,22.538,0,0,1,7.254-4.795A23.034,23.034,0,0,1,318-48.472a23.553,23.553,0,0,1,11.5,2.7,19.481,19.481,0,0,1,7.7,7.541,22.3,22.3,0,0,1,2.766,11.27,7.774,7.774,0,0,1-.041.881q-.041.348-.164,1.168H305.582a12.841,12.841,0,0,0,1.721,6.7,11.892,11.892,0,0,0,4.815,4.508,15.115,15.115,0,0,0,7.11,1.619,14.549,14.549,0,0,0,6.782-1.537,16.281,16.281,0,0,0,5.389-4.692l7.418,3.811a20.786,20.786,0,0,1-8.3,7.807A24.89,24.89,0,0,1,318.7-3.884ZM306.033-31.3h23.81a11.21,11.21,0,0,0-2.172-4.959,11.194,11.194,0,0,0-4.139-3.258,13.007,13.007,0,0,0-5.573-1.168,13.9,13.9,0,0,0-5.778,1.147,10.6,10.6,0,0,0-4.139,3.238A10.474,10.474,0,0,0,306.033-31.3ZM380.782-5.2l7.459-67.619h11.393l17.5,46.1,17.5-46.1h11.393L453.483-5.2h-10.7l-5.41-48.194-16.8,45.653h-6.844L396.888-53.389,391.519-5.2ZM489.628-3.884a19.855,19.855,0,0,1-10.553-2.889,20.847,20.847,0,0,1-7.5-7.93,23.542,23.542,0,0,1-2.766-11.516,23.826,23.826,0,0,1,2.684-11.413,20.481,20.481,0,0,1,7.4-7.93,20.019,20.019,0,0,1,10.737-2.91,20.13,20.13,0,0,1,9.057,2.049,16.44,16.44,0,0,1,6.557,5.7V-47.16h10.2V-5.2h-10.2v-6.721a19.662,19.662,0,0,1-6.823,5.922A18.685,18.685,0,0,1,489.628-3.884Zm2.91-8.729a12.832,12.832,0,0,0,6.721-1.742,12.458,12.458,0,0,0,4.59-4.815,14.37,14.37,0,0,0,1.68-7.008,14.338,14.338,0,0,0-1.68-7.028A12.5,12.5,0,0,0,499.259-38a12.832,12.832,0,0,0-6.721-1.742A12.97,12.97,0,0,0,485.817-38a12.364,12.364,0,0,0-4.631,4.815,14.37,14.37,0,0,0-1.68,7.008,14.37,14.37,0,0,0,1.68,7.008,12.364,12.364,0,0,0,4.631,4.815A12.97,12.97,0,0,0,492.538-12.613ZM535.363-5.2V-47.16h10.2v5.041a16.327,16.327,0,0,1,5.8-4.569,18.576,18.576,0,0,1,8.3-1.783,16.781,16.781,0,0,1,8.463,2.07,14.33,14.33,0,0,1,5.635,5.84,18.749,18.749,0,0,1,2.008,8.934V-5.2h-10.2V-29.5q0-5.246-2.6-8.094a9.253,9.253,0,0,0-7.192-2.848,10.942,10.942,0,0,0-5.45,1.291,9.09,9.09,0,0,0-3.524,3.442,9.452,9.452,0,0,0-1.229,4.774V-5.2ZM612.49-3.884a19.814,19.814,0,0,1-10.471-2.869,20.693,20.693,0,0,1-7.5-7.909,23.541,23.541,0,0,1-2.766-11.516,23.62,23.62,0,0,1,2.725-11.454,20.734,20.734,0,0,1,7.458-7.93,20.2,20.2,0,0,1,10.8-2.91,19.442,19.442,0,0,1,8.893,2.049,17.21,17.21,0,0,1,6.557,5.7v-35h10.2V-5.2h-10.2v-6.721a19.54,19.54,0,0,1-6.823,5.9A18.866,18.866,0,0,1,612.49-3.884Zm2.951-8.729a12.94,12.94,0,0,0,6.741-1.742,12.449,12.449,0,0,0,4.61-4.795,14.252,14.252,0,0,0,1.68-6.987,14.488,14.488,0,0,0-1.68-7.028A12.373,12.373,0,0,0,622.182-38a12.94,12.94,0,0,0-6.741-1.742A12.891,12.891,0,0,0,608.76-38a12.328,12.328,0,0,0-4.631,4.836,14.574,14.574,0,0,0-1.68,7.069,14.307,14.307,0,0,0,1.66,6.946,12.256,12.256,0,0,0,4.61,4.795A12.97,12.97,0,0,0,615.44-12.613ZM658.266-5.2V-47.16h10.2V-5.2Zm5.123-50.571a5.946,5.946,0,0,1-3.094-.84,6.363,6.363,0,0,1-2.254-2.254A6.022,6.022,0,0,1,657.2-62a5.84,5.84,0,0,1,.84-3.074,6.418,6.418,0,0,1,2.254-2.233,5.947,5.947,0,0,1,3.094-.84,5.809,5.809,0,0,1,3.094.84,6.533,6.533,0,0,1,2.213,2.233,5.84,5.84,0,0,1,.84,3.074,6.022,6.022,0,0,1-.84,3.135,6.476,6.476,0,0,1-2.213,2.254A5.809,5.809,0,0,1,663.388-55.766Z" transform="translate(440.098 216.771)" fill="#fff"/>
  </g>
</svg>
