<svg xmlns="http://www.w3.org/2000/svg" width="1173.826" height="149.687" viewBox="0 0 1173.826 149.687">
  <g id="Group_76" data-name="Group 76" transform="translate(-243 -122.401)">
    <g id="Group_74" data-name="Group 74" transform="translate(243 122.401)">
      <path id="Path_73" data-name="Path 73" d="M0,0,.06,57.342,49.78,29.415Z" transform="translate(100.929 62.67) rotate(60)" fill="#0e0e0e"/>
      <g id="Group_73" data-name="Group 73" transform="translate(0 0)">
        <path id="Path_63" data-name="Path 63" d="M13420.083-1396.242v57.049l48.219-28.524Z" transform="translate(-13419.809 1458.283)" fill="#0e0e0e"/>
        <path id="Path_71" data-name="Path 71" d="M13468.3-1396.242v57.049l-48.219-28.524Z" transform="translate(-13265.171 1458.283)" fill="#484848"/>
        <path id="Path_66" data-name="Path 66" d="M0,0V57.049L49.065,27.707Z" transform="translate(0.857 121.163) rotate(-60)" fill="#0e0e0e"/>
        <path id="Path_72" data-name="Path 72" d="M0,57.049V0L49.065,29.342Z" transform="translate(153.564 149.687) rotate(-120)" fill="#484848"/>
        <path id="Path_64" data-name="Path 64" d="M0,0,.06,57.911l49.72-28.2Z" transform="translate(50.153 30.961) rotate(60)" fill="#0e0e0e"/>
        <path id="Path_74" data-name="Path 74" d="M.1,57.206,0,0,50.581,28.675Z" transform="translate(152.211 90.906) rotate(120)" fill="#484848"/>
        <path id="Path_70" data-name="Path 70" d="M0,57.911.06,0l49.72,28.2Z" transform="translate(203.218 59.917) rotate(120)" fill="#484848"/>
        <path id="Path_65" data-name="Path 65" d="M0,0,.06,57.911l49.72-28.2Z" transform="translate(0.228 0)" fill="#0e0e0e"/>
        <path id="Path_69" data-name="Path 69" d="M0,57.911.06,0,49.78,28.2Z" transform="translate(202.991 57.911) rotate(180)" fill="#484848"/>
        <path id="Path_67" data-name="Path 67" d="M.559,0,0,58.126,50.339,29.708Z" transform="translate(50.938 30.597)" fill="#0e0e0e"/>
        <path id="Path_68" data-name="Path 68" d="M.56,58.126,0,0,50.34,28.418Z" transform="translate(152.548 88.723) rotate(180)" fill="#484848"/>
      </g>
    </g>
    <path id="Path_56" data-name="Path 56" d="M6.952,19.8l10.1-91.588H32.486l23.7,62.446,23.7-62.446H95.32l10.1,91.588H90.935L83.608-45.472,60.85,16.363H51.58L28.766-45.472,21.495,19.8ZM154.38,21.581a26.894,26.894,0,0,1-14.293-3.913A28.237,28.237,0,0,1,129.929,6.927a31.887,31.887,0,0,1-3.747-15.6,32.27,32.27,0,0,1,3.636-15.459A27.74,27.74,0,0,1,139.837-34.87a27.114,27.114,0,0,1,14.543-3.941,27.266,27.266,0,0,1,12.267,2.775,22.269,22.269,0,0,1,8.881,7.716v-8.715H189.35V19.8H175.529V10.7a26.631,26.631,0,0,1-9.242,8.021A25.308,25.308,0,0,1,154.38,21.581Zm3.941-11.823a17.38,17.38,0,0,0,9.1-2.359A16.874,16.874,0,0,0,173.641.877a19.464,19.464,0,0,0,2.276-9.492,19.421,19.421,0,0,0-2.276-9.52,16.926,16.926,0,0,0-6.217-6.494,17.38,17.38,0,0,0-9.1-2.359,17.568,17.568,0,0,0-9.1,2.359,16.748,16.748,0,0,0-6.272,6.522,19.464,19.464,0,0,0-2.276,9.492A19.464,19.464,0,0,0,142.946.877,16.748,16.748,0,0,0,149.218,7.4,17.567,17.567,0,0,0,158.321,9.758ZM216.327,19.8v-56.84h13.821v8.271a21.122,21.122,0,0,1,7.494-7.466,19.5,19.5,0,0,1,9.88-2.581,23.661,23.661,0,0,1,5.8.749,19.786,19.786,0,0,1,5.079,1.971l-5.717,11.712a16.747,16.747,0,0,0-4.246-1.776,16.884,16.884,0,0,0-4.468-.666,13.2,13.2,0,0,0-6.716,1.832,15.544,15.544,0,0,0-5.134,4.718,10.817,10.817,0,0,0-1.971,6.217V19.8Zm94.141,1.776a25.554,25.554,0,0,1-12.017-2.886,26.464,26.464,0,0,1-9.242-7.993v9.1H275.387V-75.669h13.821V-28.32a23.811,23.811,0,0,1,8.909-7.716,26.284,26.284,0,0,1,12.073-2.775,27.4,27.4,0,0,1,14.6,3.941,28.016,28.016,0,0,1,10.13,10.741A31.994,31.994,0,0,1,338.61-8.615a31.7,31.7,0,0,1-3.775,15.6A28.377,28.377,0,0,1,324.706,17.7,26.753,26.753,0,0,1,310.468,21.581ZM306.527,9.758A17.528,17.528,0,0,0,315.658,7.4,16.661,16.661,0,0,0,321.875.9a19.5,19.5,0,0,0,2.248-9.464,19.433,19.433,0,0,0-2.3-9.52,17.023,17.023,0,0,0-6.245-6.55,17.273,17.273,0,0,0-9.048-2.359,17.716,17.716,0,0,0-9.131,2.359,16.638,16.638,0,0,0-6.3,6.55,19.623,19.623,0,0,0-2.276,9.52A19.5,19.5,0,0,0,291.068.9,16.543,16.543,0,0,0,297.34,7.4,17.824,17.824,0,0,0,306.527,9.758ZM361.313,19.8V-75.669h13.821V19.8ZM429.2,21.581a33.325,33.325,0,0,1-16.292-3.941A30.042,30.042,0,0,1,401.528,6.871,28.8,28.8,0,0,1,397.337-8.5a29.354,29.354,0,0,1,2.387-11.823,30.52,30.52,0,0,1,6.605-9.658,30.526,30.526,0,0,1,9.825-6.494,31.2,31.2,0,0,1,12.1-2.331,31.9,31.9,0,0,1,15.57,3.663A26.386,26.386,0,0,1,454.26-24.935,30.207,30.207,0,0,1,458.007-9.67a10.533,10.533,0,0,1-.056,1.193Q457.9-8,457.73-6.895H411.436a17.393,17.393,0,0,0,2.331,9.076,16.107,16.107,0,0,0,6.522,6.106,20.472,20.472,0,0,0,9.631,2.193A19.707,19.707,0,0,0,439.107,8.4a22.053,22.053,0,0,0,7.3-6.356L456.453,7.2a28.154,28.154,0,0,1-11.24,10.574A33.712,33.712,0,0,1,429.2,21.581ZM412.047-15.554H444.3a15.184,15.184,0,0,0-2.942-6.716,15.162,15.162,0,0,0-5.606-4.413,17.618,17.618,0,0,0-7.549-1.582,18.822,18.822,0,0,0-7.827,1.554,14.354,14.354,0,0,0-5.606,4.385A14.186,14.186,0,0,0,412.047-15.554ZM513.293,19.8l10.1-91.588h15.431l23.7,62.446,23.7-62.446h15.431l10.1,91.588H597.276l-7.327-65.277L567.191,16.363h-9.27L535.107-45.472,527.836,19.8Zm147.428,1.776a26.893,26.893,0,0,1-14.293-3.913A28.237,28.237,0,0,1,636.27,6.927a31.886,31.886,0,0,1-3.747-15.6,32.271,32.271,0,0,1,3.636-15.459A27.741,27.741,0,0,1,646.178-34.87a27.115,27.115,0,0,1,14.543-3.941,27.266,27.266,0,0,1,12.267,2.775,22.268,22.268,0,0,1,8.881,7.716v-8.715h13.821V19.8H681.869V10.7a26.631,26.631,0,0,1-9.242,8.021A25.308,25.308,0,0,1,660.721,21.581Zm3.941-11.823a17.38,17.38,0,0,0,9.1-2.359A16.874,16.874,0,0,0,679.982.877a19.463,19.463,0,0,0,2.276-9.492,19.421,19.421,0,0,0-2.276-9.52,16.926,16.926,0,0,0-6.217-6.494,17.38,17.38,0,0,0-9.1-2.359,17.567,17.567,0,0,0-9.1,2.359,16.747,16.747,0,0,0-6.272,6.522,19.463,19.463,0,0,0-2.276,9.492A19.463,19.463,0,0,0,649.286.877,16.748,16.748,0,0,0,655.559,7.4,17.567,17.567,0,0,0,664.662,9.758ZM722.668,19.8v-56.84h13.821v6.827a22.115,22.115,0,0,1,7.854-6.189,25.161,25.161,0,0,1,11.24-2.415,22.729,22.729,0,0,1,11.462,2.8,19.409,19.409,0,0,1,7.632,7.91A25.4,25.4,0,0,1,777.4-16V19.8H763.577V-13.111q0-7.1-3.525-10.963t-9.742-3.858a14.821,14.821,0,0,0-7.382,1.748,12.313,12.313,0,0,0-4.774,4.663,12.8,12.8,0,0,0-1.665,6.467V19.8Zm104.465,1.776A26.837,26.837,0,0,1,812.951,17.7,28.028,28.028,0,0,1,802.793,6.982a31.886,31.886,0,0,1-3.747-15.6,31.993,31.993,0,0,1,3.691-15.514,28.083,28.083,0,0,1,10.1-10.741,27.36,27.36,0,0,1,14.626-3.941,26.334,26.334,0,0,1,12.045,2.775,23.31,23.31,0,0,1,8.881,7.716v-47.4h13.821V19.8H848.392V10.7a26.466,26.466,0,0,1-9.242,7.993A25.554,25.554,0,0,1,827.133,21.581Zm4-11.823A17.527,17.527,0,0,0,840.26,7.4,16.86,16.86,0,0,0,846.5.9a19.3,19.3,0,0,0,2.276-9.464,19.623,19.623,0,0,0-2.276-9.52,16.758,16.758,0,0,0-6.245-6.55,17.527,17.527,0,0,0-9.131-2.359,17.46,17.46,0,0,0-9.048,2.359,16.7,16.7,0,0,0-6.272,6.55A19.74,19.74,0,0,0,813.534-8.5,19.379,19.379,0,0,0,815.782.9,16.6,16.6,0,0,0,822.026,7.4,17.567,17.567,0,0,0,831.13,9.758ZM889.135,19.8v-56.84h13.821V19.8Zm6.938-68.5a8.054,8.054,0,0,1-4.191-1.138,8.617,8.617,0,0,1-3.053-3.053,8.157,8.157,0,0,1-1.138-4.246,7.91,7.91,0,0,1,1.138-4.163,8.692,8.692,0,0,1,3.053-3.025,8.054,8.054,0,0,1,4.191-1.138,7.868,7.868,0,0,1,4.191,1.138,8.849,8.849,0,0,1,3,3.025,7.91,7.91,0,0,1,1.138,4.163,8.156,8.156,0,0,1-1.138,4.246,8.771,8.771,0,0,1-3,3.053A7.868,7.868,0,0,1,896.073-48.692Z" transform="translate(512.427 223.381)" fill="#070d11"/>
  </g>
</svg>
