<svg xmlns="http://www.w3.org/2000/svg" width="529.477" height="390.005" viewBox="0 0 529.477 390.005">
  <g id="Group_85" data-name="Group 85" transform="translate(-216 -127.401)">
    <path id="Path_73" data-name="Path 73" d="M0,0,.157,149.4,129.7,76.64Z" transform="translate(478.968 290.685) rotate(60)" fill="#fff"/>
    <g id="Group_73" data-name="Group 73" transform="translate(216 127.401)">
      <path id="Path_63" data-name="Path 63" d="M13420.082-1396.242V-1247.6l125.625-74.32Z" transform="translate(-13419.366 1557.887)" fill="#fff"/>
      <path id="Path_71" data-name="Path 71" d="M13545.707-1396.242V-1247.6l-125.625-74.32Z" transform="translate(-13016.466 1557.887)" fill="#d3d3d3"/>
      <path id="Path_66" data-name="Path 66" d="M0,0V148.639L127.836,72.19Z" transform="translate(2.232 315.685) rotate(-60)" fill="#fff"/>
      <path id="Path_72" data-name="Path 72" d="M0,148.64,0,0,127.838,76.449Z" transform="translate(400.105 390.004) rotate(-120)" fill="#d3d3d3"/>
      <path id="Path_64" data-name="Path 64" d="M0,0,.157,150.886,129.7,77.4Z" transform="translate(130.671 80.669) rotate(60)" fill="#fff"/>
      <path id="Path_74" data-name="Path 74" d="M.248,149.047,0,0,131.785,74.711Z" transform="translate(396.58 236.851) rotate(120)" fill="#d3d3d3"/>
      <path id="Path_70" data-name="Path 70" d="M0,150.886.156,0,129.7,73.484Z" transform="translate(529.477 156.111) rotate(120)" fill="#d3d3d3"/>
      <path id="Path_65" data-name="Path 65" d="M0,0,.157,150.886,129.7,77.4Z" transform="translate(0.595 0)" fill="#fff"/>
      <path id="Path_69" data-name="Path 69" d="M0,150.886.156,0,129.7,73.484Z" transform="translate(528.885 150.886) rotate(180)" fill="#d3d3d3"/>
      <path id="Path_67" data-name="Path 67" d="M1.456,0,0,151.445,131.157,77.4Z" transform="translate(132.718 79.718)" fill="#fff"/>
      <path id="Path_68" data-name="Path 68" d="M1.458,151.445,0,0,131.158,74.043Z" transform="translate(397.458 231.163) rotate(180)" fill="#d3d3d3"/>
    </g>
  </g>
</svg>
